<svg width="128" height="128" viewBox="0 0 128 128" xmlns="http://www.w3.org/2000/svg">
  <!-- Blue circular background with gradient -->
  <defs>
    <linearGradient id="bgGradient" x1="0%" y1="0%" x2="100%" y2="100%">
      <stop offset="0%" style="stop-color:#5BA3E8;stop-opacity:1" />
      <stop offset="100%" style="stop-color:#4A90E2;stop-opacity:1" />
    </linearGradient>
  </defs>

  <circle cx="64" cy="64" r="64" fill="url(#bgGradient)"/>

  <!-- Book icon (white) with shadow -->
  <rect x="30" y="40" width="60" height="60" rx="3" fill="rgba(0,0,0,0.1)"/>
  <rect x="28" y="38" width="60" height="60" rx="3" fill="white" opacity="0.95"/>
  <rect x="32" y="42" width="52" height="52" rx="1" fill="#4A90E2"/>

  <!-- Book spine -->
  <line x1="64" y1="42" x2="64" y2="94" stroke="white" stroke-width="2" opacity="0.5"/>

  <!-- Book pages/lines -->
  <line x1="36" y1="52" x2="60" y2="52" stroke="white" stroke-width="1.5" opacity="0.4"/>
  <line x1="68" y1="52" x2="80" y2="52" stroke="white" stroke-width="1.5" opacity="0.4"/>
  <line x1="36" y1="60" x2="60" y2="60" stroke="white" stroke-width="1.5" opacity="0.4"/>
  <line x1="68" y1="60" x2="80" y2="60" stroke="white" stroke-width="1.5" opacity="0.4"/>
  <line x1="36" y1="68" x2="60" y2="68" stroke="white" stroke-width="1.5" opacity="0.4"/>
  <line x1="68" y1="68" x2="80" y2="68" stroke="white" stroke-width="1.5" opacity="0.4"/>
  <line x1="36" y1="76" x2="60" y2="76" stroke="white" stroke-width="1.5" opacity="0.4"/>
  <line x1="68" y1="76" x2="80" y2="76" stroke="white" stroke-width="1.5" opacity="0.4"/>
  <line x1="36" y1="84" x2="60" y2="84" stroke="white" stroke-width="1.5" opacity="0.4"/>
  <line x1="68" y1="84" x2="80" y2="84" stroke="white" stroke-width="1.5" opacity="0.4"/>

  <!-- Light bulb (yellow) with glow -->
  <circle cx="90" cy="38" r="14" fill="#FFD700" opacity="0.3"/>
  <circle cx="90" cy="38" r="12" fill="#FFD700"/>
  <path d="M84 50 L84 56 L96 56 L96 50 Z" fill="#FFD700"/>
  <rect x="86" y="56" width="8" height="4" rx="1" fill="#E6C200"/>
  <circle cx="90" cy="38" r="8" fill="white" opacity="0.5"/>

  <!-- Light bulb filament -->
  <path d="M88 36 L88 40 M92 36 L92 40" stroke="#E6C200" stroke-width="1.5" opacity="0.6"/>
</svg>
